<svg xmlns="http://www.w3.org/2000/svg" width="50.1164" height="50.1161" viewBox="0 0 50.1164 50.1161"><defs><style>.cls-1{fill:#fff;}</style></defs><g id="Layer_2" data-name="Layer 2"><g id="Layer_1-2" data-name="Layer 1"><path class="cls-1" d="M47.1617,30.936a1.1717,1.1717,0,0,1-.138-.0083,1.1444,1.1444,0,0,1-1-1.2724l1.624-13.5437L35.087,14.7593l-1.5431,6.6128a1.1443,1.1443,0,0,1-2.2286-.52l1.7733-7.5986a1.1394,1.1394,0,0,1,1.2369-.8774l14.7191,1.5849a1.1447,1.1447,0,0,1,1.0134,1.2739L48.2961,29.9281A1.1445,1.1445,0,0,1,47.1617,30.936Z"/><path class="cls-1" d="M30.901,50.1161a1.1454,1.1454,0,0,1-.9858-.5632L18.3,29.8394a1.1441,1.1441,0,0,1,.51-1.6216A22.3727,22.3727,0,0,0,24.5176,24.05a16.1984,16.1984,0,0,0,3.663-5.1528A1.1475,1.1475,0,0,1,29.8372,18.3L49.5526,29.9155a1.1439,1.1439,0,0,1,.5586,1.0946A23.7233,23.7233,0,0,1,43.7636,44.298a20.31,20.31,0,0,1-12.8354,5.8178ZM20.8788,29.7086,31.5222,47.7725A18.4259,18.4259,0,0,0,42.146,42.68a21.533,21.533,0,0,0,5.5845-11.1819L29.756,20.9082a20.709,20.709,0,0,1-3.62,4.759A25.6591,25.6591,0,0,1,20.8788,29.7086Z"/><path class="cls-1" d="M47.2614,16.07a1.18,1.18,0,0,1-.1573-.0107,1.1447,1.1447,0,0,1-.9779-1.2893A11.42,11.42,0,0,0,38.5714,2.7189V13.8243a1.1443,1.1443,0,1,1-2.2885,0V1.1442a1.1443,1.1443,0,0,1,1.45-1.1024c9.6983,2.6862,11.2142,11.0128,10.6608,15.04A1.1447,1.1447,0,0,1,47.2614,16.07Z"/><path class="cls-1" d="M15.098,50.1161a1.145,1.145,0,0,1-1.1375-1.0216L12.376,34.3762a1.1445,1.1445,0,0,1,.8774-1.2369l7.5986-1.7741a1.1443,1.1443,0,1,1,.52,2.2286l-6.6128,1.5439,1.3524,12.56,13.5437-1.6232a1.1441,1.1441,0,0,1,.272,2.272L15.234,50.1079A1.1281,1.1281,0,0,1,15.098,50.1161Z"/><path class="cls-1" d="M13.5462,48.5438c-4.3223,0-11.1255-2.1714-13.5047-10.7613a1.1444,1.1444,0,0,1,1.1025-1.45h12.68a1.1443,1.1443,0,0,1,0,2.2885H2.7187a11.42,11.42,0,0,0,12.0545,7.5556,1.1442,1.1442,0,0,1,.3083,2.2676A11.379,11.379,0,0,1,13.5462,48.5438Z"/></g></g></svg>