<svg xmlns="http://www.w3.org/2000/svg" width="52.2442" height="39.4608" viewBox="0 0 52.2442 39.4608"><defs><style>.cls-1{fill:#fff;}</style></defs><g id="Layer_2" data-name="Layer 2"><g id="Layer_1-2" data-name="Layer 1"><path class="cls-1" d="M42.5148,39.4608c-.0453,0-.0907,0-.1364,0l-32.4637,0c-.0446,0-.0891,0-.1332,0-6.5167,0-9.09-4.6732-9.5387-7.1611L0,30.9521l52.2442.0008-.1758,1.2976C51.73,34.7554,49.2955,39.4608,42.5148,39.4608ZM9.9036,37.1716l32.4855,0c.0386,0,.0776.0008.1158.0008,4.4418,0,6.2108-2.3788,6.8927-3.9314l-46.43-.0008c.7466,1.566,2.5782,3.9318,6.8245,3.9318C9.8291,37.1724,9.8658,37.172,9.9036,37.1716Z"/><path class="cls-1" d="M48.04,33.16a1.1441,1.1441,0,0,1-1.1166-.901A7.3846,7.3846,0,0,0,45.5274,29.13a5.5291,5.5291,0,0,0-3.4848-1.8352,6.5632,6.5632,0,0,0-3.5561.4923,1.1516,1.1516,0,0,1-1.3717-.2518,9.5255,9.5255,0,0,0-5.1887-3.3149c-3.0827-.5629-5.653,2.0307-5.6786,2.0571a1.146,1.146,0,0,1-1.9271-.5014c-.9271-3.478-3.4339-3.4839-3.7232-3.4709-.026.0011-.0658.0023-.0938.0008-3.7741-.1222-4.6874,2.4185-4.7776,2.7078a1.16,1.16,0,0,1-1.0473.8148c-6.9439.2932-7.6719,5.975-7.6995,6.2166a1.1442,1.1442,0,0,1-2.2755-.2428c.2743-2.6286,2.5467-7.5919,9.139-8.21a6.9256,6.9256,0,0,1,6.6833-3.575A5.9783,5.9783,0,0,1,25.94,23.5829a8.602,8.602,0,0,1,6.3956-1.6137,11.6124,11.6124,0,0,1,5.9266,3.4489,8.9356,8.9356,0,0,1,4.11-.387,7.8211,7.8211,0,0,1,4.8486,2.56,9.4843,9.4843,0,0,1,1.938,4.1817A1.145,1.145,0,0,1,48.04,33.16Z"/><path class="cls-1" d="M22.8108,32.99a1.1439,1.1439,0,0,1-1.1372-1.03,6.1614,6.1614,0,0,0-3.7019-5.2187,10.0872,10.0872,0,0,0-3.3937-.9116,1.1443,1.1443,0,0,1,.104-2.2862c2.9361.1337,8.6514,2.0169,9.2683,8.1887a1.1436,1.1436,0,0,1-1.0244,1.2522A1.122,1.122,0,0,1,22.8108,32.99Z"/><path class="cls-1" d="M32.6983,32.99a1.144,1.144,0,0,1-1.039-1.6219,10.0889,10.0889,0,0,1,6.016-5.7051,1.144,1.144,0,0,1,.5861,2.2116,7.8547,7.8547,0,0,0-4.5226,4.4489A1.1445,1.1445,0,0,1,32.6983,32.99Z"/><path class="cls-1" d="M22.4146,31.0294a1.1445,1.1445,0,0,1-1.0894-1.4951,12.5624,12.5624,0,0,1,3.3492-4.9151,1.1441,1.1441,0,0,1,1.5049,1.7236h0a10.3523,10.3523,0,0,0-2.676,3.8931A1.1444,1.1444,0,0,1,22.4146,31.0294Z"/><path class="cls-1" d="M30.3187,18.1987a1.1444,1.1444,0,0,1-1.1442-1.1442,5.5734,5.5734,0,0,1,.9743-3.2471,3.34,3.34,0,0,0,.64-2.0575,3.34,3.34,0,0,0-.64-2.0575,5.5737,5.5737,0,0,1-.9743-3.2471A5.57,5.57,0,0,1,30.1488,3.2a3.3348,3.3348,0,0,0,.64-2.0556,1.1442,1.1442,0,1,1,2.2884,0A5.57,5.57,0,0,1,32.1031,4.39a3.3346,3.3346,0,0,0-.64,2.0552,3.34,3.34,0,0,0,.64,2.0575,5.5734,5.5734,0,0,1,.9743,3.2471,5.5737,5.5737,0,0,1-.9743,3.2471,3.34,3.34,0,0,0-.64,2.0575A1.1444,1.1444,0,0,1,30.3187,18.1987Z"/><path class="cls-1" d="M21.6543,15.1854A1.1444,1.1444,0,0,1,20.51,14.0411a4.3,4.3,0,0,1,1.0366-2.8371,2.1409,2.1409,0,0,0,0-2.9259A4.2991,4.2991,0,0,1,20.51,5.4414a4.2961,4.2961,0,0,1,1.0366-2.836,2.065,2.065,0,0,0,.5778-1.4612,1.1443,1.1443,0,0,1,2.2885,0A4.2961,4.2961,0,0,1,23.3764,3.98a2.065,2.065,0,0,0-.5778,1.4612,2.0706,2.0706,0,0,0,.5778,1.4627,4.4,4.4,0,0,1,0,5.6739,2.0708,2.0708,0,0,0-.5778,1.4631A1.1444,1.1444,0,0,1,21.6543,15.1854Z"/></g></g></svg>