<svg xmlns="http://www.w3.org/2000/svg" width="52.0846" height="45.0181" viewBox="0 0 52.0846 45.0181"><defs><style>.cls-1{fill:#fff;}</style></defs><g id="Layer_2" data-name="Layer 2"><g id="Layer_1-2" data-name="Layer 1"><path class="cls-1" d="M51.9975,24.5068H.1218L.1324,23.352C.2385,12.105,8.3972,0,26.06,0c7.89,0,14.5445,2.4619,19.2456,7.12A22.9341,22.9341,0,0,1,51.9868,23.352ZM2.4607,22.2184H49.6585A20.5323,20.5323,0,0,0,43.6949,8.7452C39.4313,4.521,33.3332,2.2885,26.06,2.2885S12.6884,4.521,8.4252,8.7452A20.5367,20.5367,0,0,0,2.4607,22.2184Z"/><path class="cls-1" d="M42.3749,45.0181l-.0887,0-32.4638,0-.0867,0C3.13,45.0177.5692,37.6532.14,33.742L0,32.4728l28.6234,0v2.2885l-25.9825,0C3.1966,37.293,4.95,42.7292,9.75,42.7292l.0619,0,32.4854,0c2.6815.0355,4.741-1.45,6.0953-4.383a15.9115,15.9115,0,0,0,1.123-3.5841H38.0241V32.4736H52.0846l-.1017,1.238C51.66,37.6331,49.2348,45.0169,42.3749,45.0181Z"/><path class="cls-1" d="M33.5958,39.04c-.0446,0-.0883-.0008-.1317-.0028-1.9223-.0717-3.7634-1.7591-4.925-4.5131-1.065-2.5242-1.8865-3.8616-2.44-3.9743-.1069-.0241-.529-.02-1.5239.942-2.6653,2.5786-5.3243,1.5672-7.0854.2649a5.5957,5.5957,0,0,1-.9365-.9385,2.6258,2.6258,0,0,0-2.4576-1.184H1.2767a1.1443,1.1443,0,1,1,0-2.2885H14.0955a4.8676,4.8676,0,0,1,4.2073,1.9976,3.7581,3.7581,0,0,0,.5483.5743c1.3807,1.02,2.6124,1.4,4.1331-.07.8317-.8041,2.104-1.8372,3.5723-1.54,1.6866.3445,2.7772,2.214,4.0909,5.3271.771,1.8281,1.9373,3.08,2.9026,3.1162.775.0217,1.6208-.76,2.3709-2.2227A25.4264,25.4264,0,0,0,37.2165,31.43c.7615-2.1,1.48-4.0835,4.2258-4.0835h9.4a1.1443,1.1443,0,0,1,0,2.2885h-9.4c-1.0564,0-1.2818.389-2.0745,2.575a27.7444,27.7444,0,0,1-1.4111,3.3634C36.5,38.4144,34.8046,39.04,33.5958,39.04Z"/><path class="cls-1" d="M40.5718,13.7952a.8552.8552,0,1,1-.6718-.671A.8556.8556,0,0,1,40.5718,13.7952Z"/><path class="cls-1" d="M35.4443,8.6677a.8552.8552,0,1,1-.6718-.671A.8556.8556,0,0,1,35.4443,8.6677Z"/><path class="cls-1" d="M29.4622,10.3776a.8552.8552,0,1,1-.6718-.671A.8556.8556,0,0,1,29.4622,10.3776Z"/></g></g></svg>