<svg xmlns="http://www.w3.org/2000/svg" width="50.1162" height="50.1165" viewBox="0 0 50.1162 50.1165"><defs><style>.cls-1{fill:#fff;}</style></defs><g id="Layer_2" data-name="Layer 2"><g id="Layer_1-2" data-name="Layer 1"><path class="cls-1" d="M25.0583,12.53a1.1444,1.1444,0,0,1-1.1443-1.1442c0-7.627-3.9936-9.0964-4.1635-9.1556A1.1505,1.1505,0,0,1,19.0316.7867,1.1357,1.1357,0,0,1,20.4569.0544c.2345.0745,5.7456,1.9333,5.7456,11.3317A1.1444,1.1444,0,0,1,25.0583,12.53Z"/><path class="cls-1" d="M34.6249,50.1165c-4.942,0-6.5714-1.4122-7.7606-2.4438a2.3345,2.3345,0,0,0-3.6105,0c-1.1892,1.0316-2.8182,2.4442-7.761,2.4442C7.2411,50.1165,0,33.8228,0,23.9743,0,13.9051,5.6231,6.597,13.37,6.597A11.0556,11.0556,0,0,1,19.7939,8.83a8.8941,8.8941,0,0,0,5.2644,1.89,8.8878,8.8878,0,0,0,5.2608-1.8888A11.0586,11.0586,0,0,1,36.7478,6.597c7.7461,0,13.3684,7.3081,13.3684,17.3773C50.1162,33.8228,42.8758,50.1165,34.6249,50.1165ZM25.0583,44.53a4.5748,4.5748,0,0,1,3.3046,1.4143c1.0189.8833,2.1738,1.884,6.262,1.884,2.903,0,6.1666-3.0669,8.9541-8.4145,2.581-4.951,4.2487-11.0112,4.2487-15.4392,0-8.8839-4.5561-15.0888-11.08-15.0888a8.7993,8.7993,0,0,0-5.195,1.8731,11.1527,11.1527,0,0,1-6.4945,2.25A11.1632,11.1632,0,0,1,18.56,10.7574,8.7956,8.7956,0,0,0,13.37,8.8855c-6.5249,0-11.0818,6.2049-11.0818,15.0888,0,4.4276,1.6677,10.4882,4.2494,15.4392,2.7879,5.3476,6.0519,8.4145,8.9549,8.4145,4.0886,0,5.2435-1.0011,6.262-1.8844A4.575,4.575,0,0,1,25.0583,44.53Z"/><path class="cls-1" d="M30.0058,31.15a1.1444,1.1444,0,0,1-1.1443-1.1443v-6.597a1.1443,1.1443,0,0,1,2.2885,0v6.597A1.1444,1.1444,0,0,1,30.0058,31.15Z"/><path class="cls-1" d="M20.11,31.15a1.1445,1.1445,0,0,1-1.1443-1.1443v-6.597a1.1443,1.1443,0,0,1,2.2885,0v6.597A1.1444,1.1444,0,0,1,20.11,31.15Z"/></g></g></svg>